<svg width="20" height="14" viewBox="0 0 20 14" fill="none" xmlns="http://www.w3.org/2000/svg">
<path d="M0.833328 13.4166L0.833328 7.91665C0.833328 7.50415 0.917356 7.12984 1.08541 6.79373C1.25347 6.45762 1.47499 6.1597 1.74999 5.89998L1.74999 3.33331C1.74999 2.56942 2.01736 1.92012 2.55208 1.3854C3.0868 0.850674 3.73611 0.583313 4.49999 0.583313L8.16666 0.583313C8.51805 0.583313 8.84652 0.648396 9.15208 0.778563C9.45763 0.908118 9.74027 1.08748 10 1.31665C10.2597 1.08748 10.5424 0.908118 10.8479 0.778563C11.1535 0.648396 11.4819 0.583313 11.8333 0.583313L15.5 0.583313C16.2639 0.583313 16.9132 0.850674 17.4479 1.3854C17.9826 1.92012 18.25 2.56942 18.25 3.33331L18.25 5.89998C18.525 6.1597 18.7465 6.45762 18.9146 6.79373C19.0826 7.12984 19.1667 7.50415 19.1667 7.91665L19.1667 13.4166L17.3333 13.4166L17.3333 11.5833L2.66666 11.5833L2.66666 13.4166L0.833328 13.4166ZM10.9167 5.16665L16.4167 5.16665L16.4167 3.33331C16.4167 3.07359 16.3287 2.85573 16.1527 2.67973C15.9773 2.50434 15.7597 2.41665 15.5 2.41665L11.8333 2.41665C11.5736 2.41665 11.3561 2.50434 11.1807 2.67973C11.0047 2.85573 10.9167 3.07359 10.9167 3.33331L10.9167 5.16665ZM3.58333 5.16665L9.08333 5.16665L9.08333 3.33331C9.08333 3.07359 8.99563 2.85573 8.82025 2.67973C8.64425 2.50434 8.42638 2.41665 8.16666 2.41665L4.49999 2.41665C4.24027 2.41665 4.02241 2.50434 3.84641 2.67973C3.67102 2.85573 3.58333 3.07359 3.58333 3.33331L3.58333 5.16665Z" fill="#C9BEB3"/>
</svg>
