<svg width="33" height="30" viewBox="0 0 33 30" fill="none" xmlns="http://www.w3.org/2000/svg">
<path d="M5.24364 29.7883L27.1904 29.7883C30.649 29.7883 32.45 28.0033 32.45 24.5925L32.45 5.19583C32.45 1.78507 30.649 0 27.1904 0L5.24364 0C1.80101 0 0 1.76913 0 5.19583L0 24.5925C0 28.0033 1.80101 29.7883 5.24364 29.7883ZM5.2277 26.6166C3.90484 26.6166 3.17168 25.9313 3.17168 24.5288L3.17168 9.86569C3.17168 8.46314 3.90484 7.7778 5.2277 7.7778L27.2064 7.7778C28.5292 7.7778 29.2624 8.46314 29.2624 9.86569L29.2624 24.5288C29.2624 25.9313 28.5292 26.6166 27.2064 26.6166L5.2277 26.6166ZM13.1489 13.2764L14.0893 13.2764C14.6631 13.2764 14.8543 13.1011 14.8543 12.5433L14.8543 11.6029C14.8543 11.0292 14.6631 10.8539 14.0893 10.8539L13.1489 10.8539C12.5752 10.8539 12.3839 11.0292 12.3839 11.6029L12.3839 12.5433C12.3839 13.1011 12.5752 13.2764 13.1489 13.2764ZM18.3607 13.2764L19.3011 13.2764C19.8589 13.2764 20.0501 13.1011 20.0501 12.5433L20.0501 11.6029C20.0501 11.0292 19.8589 10.8539 19.3011 10.8539L18.3607 10.8539C17.7869 10.8539 17.5957 11.0292 17.5957 11.6029L17.5957 12.5433C17.5957 13.1011 17.7869 13.2764 18.3607 13.2764ZM23.5565 13.2764L24.4969 13.2764C25.0707 13.2764 25.2619 13.1011 25.2619 12.5433L25.2619 11.6029C25.2619 11.0292 25.0707 10.8539 24.4969 10.8539L23.5565 10.8539C22.9987 10.8539 22.8074 11.0292 22.8074 11.6029L22.8074 12.5433C22.8074 13.1011 22.9987 13.2764 23.5565 13.2764ZM7.95312 18.4085L8.87753 18.4085C9.4513 18.4085 9.64256 18.2332 9.64256 17.6594L9.64256 16.7191C9.64256 16.1612 9.4513 15.9859 8.87753 15.9859L7.95312 15.9859C7.37935 15.9859 7.18809 16.1612 7.18809 16.7191L7.18809 17.6594C7.18809 18.2332 7.37935 18.4085 7.95312 18.4085ZM13.1489 18.4085L14.0893 18.4085C14.6631 18.4085 14.8543 18.2332 14.8543 17.6594L14.8543 16.7191C14.8543 16.1612 14.6631 15.9859 14.0893 15.9859L13.1489 15.9859C12.5752 15.9859 12.3839 16.1612 12.3839 16.7191L12.3839 17.6594C12.3839 18.2332 12.5752 18.4085 13.1489 18.4085ZM18.3607 18.4085L19.3011 18.4085C19.8589 18.4085 20.0501 18.2332 20.0501 17.6594L20.0501 16.7191C20.0501 16.1612 19.8589 15.9859 19.3011 15.9859L18.3607 15.9859C17.7869 15.9859 17.5957 16.1612 17.5957 16.7191L17.5957 17.6594C17.5957 18.2332 17.7869 18.4085 18.3607 18.4085ZM23.5565 18.4085L24.4969 18.4085C25.0707 18.4085 25.2619 18.2332 25.2619 17.6594L25.2619 16.7191C25.2619 16.1612 25.0707 15.9859 24.4969 15.9859L23.5565 15.9859C22.9987 15.9859 22.8074 16.1612 22.8074 16.7191L22.8074 17.6594C22.8074 18.2332 22.9987 18.4085 23.5565 18.4085ZM7.95312 23.5247L8.87753 23.5247C9.4513 23.5247 9.64256 23.3493 9.64256 22.7915L9.64256 21.8512C9.64256 21.2774 9.4513 21.1021 8.87753 21.1021L7.95312 21.1021C7.37935 21.1021 7.18809 21.2774 7.18809 21.8512L7.18809 22.7915C7.18809 23.3493 7.37935 23.5247 7.95312 23.5247ZM13.1489 23.5247L14.0893 23.5247C14.6631 23.5247 14.8543 23.3493 14.8543 22.7915L14.8543 21.8512C14.8543 21.2774 14.6631 21.1021 14.0893 21.1021L13.1489 21.1021C12.5752 21.1021 12.3839 21.2774 12.3839 21.8512L12.3839 22.7915C12.3839 23.3493 12.5752 23.5247 13.1489 23.5247ZM18.3607 23.5247L19.3011 23.5247C19.8589 23.5247 20.0501 23.3493 20.0501 22.7915L20.0501 21.8512C20.0501 21.2774 19.8589 21.1021 19.3011 21.1021L18.3607 21.1021C17.7869 21.1021 17.5957 21.2774 17.5957 21.8512L17.5957 22.7915C17.5957 23.3493 17.7869 23.5247 18.3607 23.5247Z" fill="#CCCCCC"/>
</svg>
