<svg width="16" height="10" viewBox="0 0 16 10" fill="none" xmlns="http://www.w3.org/2000/svg">
<path d="M15.4971 2.45313L8.80859 9.29102C8.57129 9.53711 8.30762 9.65137 8 9.65137C7.69238 9.65137 7.41113 9.52832 7.18262 9.29102L0.50293 2.45313C0.30957 2.25098 0.204102 2.01367 0.204102 1.72363C0.204102 1.13477 0.661133 0.677734 1.24121 0.677734C1.52246 0.677734 1.79492 0.791992 1.99707 0.994141L7.99121 7.15527L14.0029 0.994141C14.2051 0.791992 14.4687 0.677734 14.7588 0.677734C15.3389 0.677734 15.7959 1.13477 15.7959 1.72363C15.7959 2.00488 15.6904 2.25098 15.4971 2.45313Z" fill="#CCCCCC"/>
</svg>
