<svg width="35" height="34" viewBox="0 0 35 34" fill="none" xmlns="http://www.w3.org/2000/svg">
<path fill-rule="evenodd" clip-rule="evenodd" d="M11.2898 0L24.2226 0C30.1738 0 34.9999 4.75787 34.9999 10.625L34.9999 23.375C34.9999 29.2421 30.1738 34 24.2226 34L11.2898 34C5.33854 34 0.512451 29.2421 0.512451 23.375L0.512451 10.625C0.512451 4.75787 5.33854 0 11.2898 0ZM24.2222 30.8125C28.3823 30.8125 31.7664 27.4762 31.7664 23.375L31.7664 10.625C31.7664 6.52375 28.3823 3.1875 24.2222 3.1875L11.2894 3.1875C7.12939 3.1875 3.7453 6.52375 3.7453 10.625L3.7453 23.375C3.7453 27.4762 7.12939 30.8125 11.2894 30.8125L24.2222 30.8125Z" fill="#F6F6F6"/>
<path fill-rule="evenodd" clip-rule="evenodd" d="M9.13409 17C9.13409 12.3059 12.9945 8.5 17.756 8.5C22.5174 8.5 26.3778 12.3059 26.3778 17C26.3778 21.6941 22.5174 25.5 17.756 25.5C12.9945 25.5 9.13409 21.6941 9.13409 17ZM12.3672 17C12.3672 19.9282 14.7857 22.3125 17.7559 22.3125C20.7261 22.3125 23.1446 19.9282 23.1446 17C23.1446 14.0696 20.7261 11.6875 17.7559 11.6875C14.7857 11.6875 12.3672 14.0696 12.3672 17Z" fill="#F6F6F6"/>
<ellipse cx="27.0247" cy="7.86261" rx="1.14886" ry="1.13262" fill="#F6F6F6"/>
</svg>
