<svg width="38" height="25" viewBox="0 0 38 25" fill="none" xmlns="http://www.w3.org/2000/svg">
<path d="M25.5202 12.422C28.7151 12.422 31.3136 9.59823 31.3136 6.13809C31.3136 2.71773 28.7284 0 25.5202 0C22.3252 0 19.7002 2.7575 19.7135 6.15135C19.7267 9.61149 22.3119 12.422 25.5202 12.422ZM10.155 12.7269C12.9391 12.7269 15.206 10.2478 15.206 7.19867C15.206 4.2158 12.9391 1.80298 10.155 1.80298C7.38427 1.80298 5.09077 4.25557 5.10403 7.21193C5.11729 10.2611 7.37102 12.7269 10.155 12.7269ZM25.5202 10.1418C23.6774 10.1418 22.1131 8.39182 22.1131 6.15135C22.1131 3.97717 23.6641 2.2935 25.5202 2.2935C27.3762 2.2935 28.914 3.95065 28.914 6.13809C28.914 8.36531 27.3629 10.1418 25.5202 10.1418ZM10.155 10.4732C8.64371 10.4732 7.35776 9.02817 7.35776 7.21193C7.35776 5.47523 8.63045 4.05671 10.155 4.05671C11.6929 4.05671 12.9523 5.44872 12.9523 7.19867C12.9523 9.02817 11.6796 10.4732 10.155 10.4732ZM2.8503 24.9103L13.1512 24.9103C12.4353 24.4993 11.9448 23.5448 12.0376 22.6699L2.70447 22.6699C2.45259 22.6699 2.34653 22.5638 2.34653 22.3252C2.34653 19.276 5.92598 16.3594 10.1418 16.3594C11.6398 16.3594 13.1247 16.7306 14.278 17.3802C14.7288 16.7439 15.2723 16.2003 15.9882 15.7231C14.3045 14.6757 12.2232 14.1189 10.1418 14.1189C4.54723 14.1189 0 18.1359 0 22.5373C0 24.1016 0.95452 24.9103 2.8503 24.9103ZM17.2476 24.9103L33.7794 24.9103C36.0597 24.9103 37.16 24.1944 37.16 22.6433C37.16 19.0109 32.626 14.1322 25.5069 14.1322C18.3878 14.1322 13.8538 19.0109 13.8538 22.6433C13.8538 24.1944 14.9541 24.9103 17.2476 24.9103ZM16.7969 22.6168C16.492 22.6168 16.3727 22.524 16.3727 22.2721C16.3727 20.2438 19.6472 16.4257 25.5069 16.4257C31.3666 16.4257 34.6544 20.2438 34.6544 22.2721C34.6544 22.524 34.5218 22.6168 34.2169 22.6168L16.7969 22.6168Z" fill="#CCCCCC"/>
</svg>
