<svg width="32" height="32" viewBox="0 0 32 32" fill="none" xmlns="http://www.w3.org/2000/svg">
<path d="M3.55556 12.4445C3.55556 7.53526 7.53526 3.55556 12.4445 3.55556C17.3536 3.55556 21.3334 7.53526 21.3334 12.4445C21.3334 17.3536 17.3536 21.3334 12.4445 21.3334C7.53526 21.3334 3.55556 17.3536 3.55556 12.4445ZM12.4445 0C5.57158 0 0 5.57158 0 12.4445C0 19.3174 5.57158 24.8889 12.4445 24.8889C15.2397 24.8889 17.8198 23.9673 19.8973 22.4114L28.9652 31.4793C29.6594 32.1736 30.7851 32.1736 31.4793 31.4793C32.1736 30.7851 32.1736 29.6594 31.4793 28.9652L22.4114 19.8973C23.9673 17.8198 24.8889 15.2397 24.8889 12.4445C24.8889 5.57158 19.3174 0 12.4445 0Z" fill="#CCCCCC"/>
</svg>
