<svg width="35" height="28" viewBox="0 0 35 28" fill="none" xmlns="http://www.w3.org/2000/svg">
<path d="M34.8077 3.3612C33.5252 3.91582 32.1586 4.28345 30.7339 4.46195C32.1996 3.5992 33.3183 2.24345 33.8442 0.60932C32.4776 1.41257 30.9688 1.97995 29.3608 2.29657C28.0633 0.934445 26.2139 0.0908203 24.1963 0.0908203C20.282 0.0908203 17.1307 3.22307 17.1307 7.06294C17.1307 7.61545 17.1782 8.1467 17.2945 8.65244C11.4166 8.36982 6.21545 5.59244 2.72144 1.36157C2.11144 2.40495 1.75364 3.5992 1.75364 4.88482C1.75364 7.29882 3.01458 9.43869 4.89415 10.6776C3.75822 10.6563 2.64384 10.3312 1.69975 9.81907C1.69975 9.84032 1.69975 9.86795 1.69975 9.89557C1.69975 13.2828 4.15051 16.0963 7.36431 16.7444C6.78881 16.8996 6.16156 16.9739 5.51061 16.9739C5.05797 16.9739 4.60101 16.9484 4.17207 16.8549C5.08814 19.6153 7.68763 21.6447 10.7786 21.7106C8.37307 23.5657 5.31878 24.6834 2.01229 24.6834C1.43247 24.6834 0.876362 24.6579 0.320251 24.5878C3.45214 26.5789 7.16386 27.7158 11.1666 27.7158C24.1769 27.7158 31.29 17.0908 31.29 7.88107C31.29 7.57295 31.2792 7.27544 31.2641 6.98007C32.6673 5.99832 33.8464 4.7722 34.8077 3.3612Z" fill="#F6F6F6"/>
</svg>
